PathFileType	4	(X/Y/Z)	 s10c0401.trc
DataRate	CameraRate	NumFrames	NumMarkers	Units	OrigDataRate	OrigDataStartFrame	OrigNumFrames
200	200	5	50	mm	200	751	2000
Frame#	Time	racr			lacr			c7			jug			rlel			rdr			llel			ldr			s2			lic			ric			lasi			rasi			rpsi			lpsi			rgt			lgt			rth1			rth2			rth3			rth4			rlfc			rmfc			rsh1			rsh2			rsh3			rsh4			rlmal			rmmal			rcal			rtoe			rmt5			lth1			lth2			lth4			lth3			llfc			lmfc			llmal			lmmal			lcal			lmt5			lsh1			lsh2			lsh3			lsh4			ltoe			SBIKE			LBIKE			RBIKE			
		X1	Y1	Z1	X2	Y2	Z2	X3	Y3	Z3	X4	Y4	Z4	X5	Y5	Z5	X6	Y6	Z6	X7	Y7	Z7	X8	Y8	Z8	X9	Y9	Z9	X10	Y10	Z10	X11	Y11	Z11	X12	Y12	Z12	X13	Y13	Z13	X14	Y14	Z14	X15	Y15	Z15	X16	Y16	Z16	X17	Y17	Z17	X18	Y18	Z18	X19	Y19	Z19	X20	Y20	Z20	X21	Y21	Z21	X22	Y22	Z22	X23	Y23	Z23	X24	Y24	Z24	X25	Y25	Z25	X26	Y26	Z26	X27	Y27	Z27	X28	Y28	Z28	X29	Y29	Z29	X30	Y30	Z30	X31	Y31	Z31	X32	Y32	Z32	X33	Y33	Z33	X34	Y34	Z34	X35	Y35	Z35	X36	Y36	Z36	X37	Y37	Z37	X38	Y38	Z38	X39	Y39	Z39	X40	Y40	Z40	X41	Y41	Z41	X42	Y42	Z42	X43	Y43	Z43	X44	Y44	Z44	X45	Y45	Z45	X46	Y46	Z46	X47	Y47	Z47	X48	Y48	Z48	X49	Y49	Z49	X50	Y50	Z50	
751	3.7550	647.142963	1263.362135	-40.855301	618.397051	1295.937027	-376.712728	617.941713	1330.270372	-208.036028	610.789848	1179.239590	-211.641326	501.614469	1066.143378	95.149416	622.890934	912.715521	19.840055	493.919245	1052.641096	-471.907629	641.722750	913.527839	-382.625586	97.410187	1128.050747	-172.268470	247.605920	1146.344379	-336.326674	291.734797	1097.611819	-42.917522	258.660384	1053.566472	-319.721453	273.039479	1014.064047	-69.241962	152.275619	1165.709797	-110.836731	142.895314	1194.023112	-219.381997	158.798325	996.197966	-12.096763	142.418962	1041.609209	-388.574294	185.714169	860.702894	5.949897	229.661856	785.101814	-10.089786	228.225174	700.441770	-22.671562	265.432127	796.170479	-14.867060	264.493641	599.558868	-41.786595	254.748874	593.858117	-154.603689	196.500185	504.486309	-13.235267	189.027668	417.263527	-27.608943	140.539557	345.900918	-33.238194	218.809851	410.276188	-51.488767	103.109508	252.556030	-49.576299	127.669552	260.758869	-130.039758	49.211408	251.270136	-100.243999	265.580902	141.588914	-86.270080	176.449586	147.174164	-27.714374	240.175839	960.123884	-413.310018	324.269806	939.179052	-405.229145	340.610430	968.757088	-390.102398	388.996096	878.878173	-412.412103	474.959271	809.047691	-399.549566	478.128120	791.868031	-272.411096	145.379783	622.057494	-373.704629	159.065401	618.908215	-292.007807	78.828544	629.542771	-327.372108	189.589462	490.493608	-388.642229	364.842755	754.954005	-420.916425	309.936058	690.280775	-401.938423	224.441024	662.228498	-392.591612	327.937244	670.088819	-373.517566	270.351553	462.937609	-329.848046	-204.797736	834.321809	-223.960906	-78.293610	81.736585	-423.710806	-102.715246	80.446546	-24.372606	
752	3.7600	646.773499	1263.823240	-42.430970	619.233006	1295.011741	-378.300477	618.229674	1330.017830	-210.008056	610.909968	1178.787495	-213.123187	501.570530	1066.668757	94.034971	622.905933	912.635818	19.596370	493.796822	1052.005655	-473.224812	641.713494	913.643914	-382.901178	97.132154	1127.952017	-172.494350	247.466888	1145.976723	-337.299140	292.035657	1097.968757	-43.982420	258.645265	1053.268081	-320.492634	273.299921	1014.189810	-69.870654	152.276386	1165.641624	-111.292116	142.919334	1193.961271	-220.190417	158.843785	996.378788	-12.773135	142.446805	1041.098290	-389.087321	185.155736	860.864313	5.544264	228.826531	785.044487	-10.336969	227.098278	700.401289	-22.862919	264.597485	796.055583	-15.109929	262.983079	599.409320	-41.885427	253.798140	593.521491	-154.559889	194.276800	504.601723	-13.186939	186.871284	417.306358	-27.632376	138.163468	346.084031	-33.296292	216.746989	410.275231	-51.406664	100.768134	252.649795	-49.709261	125.332260	260.900668	-129.928091	46.858244	251.472405	-100.222052	262.856891	141.016421	-86.402056	173.661780	147.058699	-27.766878	240.287992	959.535534	-413.287802	324.564137	939.207440	-405.975647	340.823558	969.039072	-391.590325	389.367404	878.971128	-413.379218	475.853777	809.669840	-400.503939	479.351330	792.862763	-274.079524	146.956010	621.624252	-373.638925	161.623584	618.828974	-291.985047	80.153902	628.751433	-327.351861	192.177064	490.687666	-388.678580	366.032618	755.102814	-421.553010	311.340460	690.282022	-402.179537	225.980416	661.995094	-392.769353	329.347967	670.292891	-373.806910	273.217165	464.006456	-329.793583	-204.813488	834.316356	-223.991030	-78.287644	81.755378	-423.701706	-102.689990	80.443387	-24.386620	
753	3.7650	646.364373	1264.493090	-44.236471	620.158134	1294.159137	-380.262317	618.576041	1329.927693	-211.845967	611.018450	1178.519530	-214.638067	501.467889	1067.309077	92.735751	622.900299	912.495924	19.258893	493.836867	1051.338284	-474.673981	641.654214	913.636645	-383.222104	97.256688	1128.220611	-173.184831	247.327333	1145.831803	-338.275146	292.409815	1098.393031	-45.070604	258.712595	1053.111498	-321.402372	273.605534	1014.357599	-70.444947	152.572555	1165.942424	-112.117998	143.108165	1194.122182	-221.150929	158.913875	996.605189	-13.427697	142.496563	1040.747688	-389.646756	184.612755	861.093890	5.145577	227.962065	785.104032	-10.612857	225.813043	700.418754	-23.104721	263.760593	795.942820	-15.349717	261.171388	599.290572	-41.991733	252.644171	593.358006	-154.647135	192.404140	504.644127	-13.502404	184.576921	417.494786	-27.635737	135.785167	346.254980	-33.382217	214.530803	410.222577	-51.362556	98.339304	252.846783	-49.652415	122.924523	261.094509	-129.751788	44.573028	252.029834	-100.320511	260.080228	140.600696	-86.551846	170.906326	146.877160	-27.942463	240.466770	959.197812	-413.825494	324.811227	939.151405	-406.755598	341.117094	969.017212	-392.578604	389.750978	879.024243	-414.275690	476.597813	810.161984	-401.425183	480.600880	793.840778	-274.771999	148.404617	621.264213	-373.562913	163.240111	618.800122	-292.000225	81.381701	627.709722	-327.167910	194.698512	491.140890	-388.826608	367.072418	755.157778	-422.097391	312.570847	690.306777	-402.450520	227.383974	661.685439	-392.938166	330.715327	670.494684	-373.980739	276.137681	465.254554	-329.763422	-204.818117	834.309423	-223.987846	-78.291584	81.712868	-423.679399	-102.686012	80.429778	-24.378302	
754	3.7700	646.064488	1265.110076	-45.919630	621.132267	1293.393725	-382.369130	618.943201	1329.899787	-213.816125	611.198893	1178.365125	-216.079999	501.478128	1067.911127	91.519732	622.957276	912.433370	18.914911	493.894759	1050.812712	-476.116213	641.610520	913.549813	-383.588860	97.268839	1128.849714	-173.864041	247.343120	1145.901110	-339.515085	292.832360	1098.968135	-46.077354	258.804800	1053.051626	-322.199855	273.946002	1014.611574	-71.080048	152.822244	1166.515922	-112.939077	143.204589	1194.255470	-221.962083	159.003149	996.964859	-14.095038	142.612267	1040.427910	-390.221092	184.030939	861.549932	4.737304	226.973080	785.205341	-11.002685	224.425094	700.526460	-23.376631	262.855416	795.912132	-15.654067	259.201834	599.280053	-42.192493	251.286077	593.152629	-154.718346	190.169190	504.868732	-13.686563	182.223207	417.668424	-27.732514	133.274751	346.575281	-33.463124	212.321095	410.241995	-51.301242	95.992360	253.048757	-49.739033	120.579499	261.338721	-129.781315	42.327515	252.600095	-100.357351	257.280070	140.146087	-86.688290	168.062945	146.769705	-28.077005	240.696939	958.893856	-414.401152	325.101080	939.008186	-407.621463	341.355762	968.943443	-393.572701	390.054891	878.976828	-415.092864	477.274911	810.628008	-402.350272	481.717151	794.873515	-275.508683	149.761312	620.716456	-373.471064	164.558093	618.642341	-291.963045	82.475798	626.741698	-327.239246	197.253952	491.275671	-388.981375	367.969227	755.212484	-422.624894	313.736398	690.237865	-402.742714	228.594609	661.345362	-393.155067	331.904842	670.625468	-374.136386	278.973317	466.374848	-329.733012	-204.843693	834.300208	-223.986633	-78.285003	81.745049	-423.703518	-102.707771	80.425310	-24.388499	
755	3.7750	645.697695	1265.961025	-47.554798	622.240025	1292.697670	-384.435032	619.416905	1329.944140	-215.658348	611.411031	1178.265512	-217.694044	501.507057	1068.617019	90.053242	622.964390	912.324959	18.552561	494.050139	1050.223311	-477.652968	641.585954	913.505722	-383.964014	97.637432	1129.383765	-174.510234	247.338377	1146.036669	-340.660753	293.276973	1099.788554	-47.152383	258.874323	1053.084566	-322.974797	274.318074	1015.194184	-71.728174	153.331606	1167.202825	-113.769029	143.440337	1194.782113	-222.910459	159.094570	997.690313	-14.639925	142.810716	1040.217464	-390.841609	183.471904	862.108739	4.299414	225.949397	785.492136	-11.378445	222.846029	700.850195	-23.719722	261.845522	795.959848	-16.058585	257.100673	599.452782	-42.414442	249.758909	593.082976	-154.890123	187.793179	505.183215	-13.890351	179.787706	417.896564	-27.875300	130.734843	346.941335	-33.592407	209.912379	410.522434	-51.268463	93.673453	253.501420	-49.743856	118.303654	261.512541	-129.881963	40.141497	253.363068	-100.393559	254.400412	139.625294	-86.901453	165.363466	146.720408	-28.296300	240.926732	958.534352	-414.965803	325.358471	938.769179	-408.446159	341.603322	968.869863	-394.599333	390.329160	878.868491	-415.875533	477.836130	810.963220	-403.212952	482.666696	795.492610	-276.201932	151.004109	620.022910	-373.412094	165.652506	618.424068	-291.924519	83.571392	625.280243	-327.331881	199.780408	491.338341	-389.012998	368.694521	755.228554	-423.140197	314.706011	690.049025	-402.967457	229.699438	660.914278	-393.281341	333.036937	670.709850	-374.331753	281.841725	467.509929	-329.628094	-204.847106	834.306598	-224.023995	-78.294498	81.705813	-423.699361	-102.701552	80.444171	-24.388749	
